<?xml version="1.0" encoding="utf-8"?>
<!-- Generator: Adobe Illustrator 16.0.0, SVG Export Plug-In . SVG Version: 6.00 Build 0)  -->
<!DOCTYPE svg PUBLIC "-//W3C//DTD SVG 1.1//EN" "http://www.w3.org/Graphics/SVG/1.1/DTD/svg11.dtd">
<svg version="1.1" id="Layer_1" xmlns="http://www.w3.org/2000/svg" xmlns:xlink="http://www.w3.org/1999/xlink" x="0px" y="0px"
	 width="25px" height="25px" viewBox="0 0 25 25" enable-background="new 0 0 25 25" xml:space="preserve">
<g>
	<g id="XMLID_1_">
		<g>
			<path fill="#FFFFFF" d="M25.005,20.749c0,1.419,0,2.838,0,4.257c-1.419,0-2.838,0-4.257,0c0.549-0.167,1.121-0.263,1.634-0.513
				c1.454-0.716,2.312-1.908,2.539-3.529C24.933,20.892,24.98,20.82,25.005,20.749z"/>
			<path fill="#333333" d="M25.005,4.474c0,5.425,0,10.85,0,16.275c-0.024,0.071-0.072,0.143-0.084,0.215
				c-0.227,1.621-1.085,2.813-2.539,3.529c-0.513,0.25-1.085,0.346-1.634,0.513c-5.425,0-10.85,0-16.275,0
				c-0.083-0.024-0.143-0.072-0.227-0.084c-1.622-0.227-2.802-1.085-3.518-2.539c-0.25-0.513-0.357-1.085-0.524-1.634
				c0-5.425,0-10.85,0-16.275c0.024-0.083,0.071-0.143,0.083-0.227c0.227-1.622,1.085-2.802,2.54-3.518
				c0.513-0.25,1.097-0.357,1.646-0.524c5.425,0,10.85,0,16.275,0c0.071,0.024,0.143,0.071,0.215,0.083
				c1.621,0.227,2.813,1.085,3.529,2.54C24.742,3.341,24.838,3.925,25.005,4.474z M21.237,20.88c0-2.11,0.023-4.221-0.013-6.343
				c0-0.632-0.095-1.288-0.238-1.908c-0.394-1.657-1.419-2.73-3.111-3.052c-1.622-0.298-3.064,0.012-4.066,1.466
				c-0.035,0.036-0.083,0.072-0.227,0.191c0-0.561,0-1.037,0-1.502c-1.335,0-2.611,0-3.875,0c0,3.851,0,7.667,0,11.506
				c1.3,0,2.563,0,3.899,0c0-0.251,0-0.441,0-0.633c0-1.896-0.024-3.779,0.012-5.663c0.012-0.501,0.119-1.037,0.334-1.479
				c0.394-0.822,1.18-1.133,2.074-0.954c0.68,0.132,1.109,0.68,1.229,1.562c0.047,0.394,0.071,0.799,0.071,1.204
				c0.012,1.812,0.012,3.612,0.012,5.425c0,0.167,0,0.346,0,0.537c1.323,0,2.588,0,3.875,0
				C21.225,21.106,21.237,20.999,21.237,20.88z M7.835,21.226c0-3.862,0-7.678,0-11.505c-1.288,0-2.528,0-3.815,0
				c0,3.863,0,7.678,0,11.505C5.319,21.226,6.583,21.226,7.835,21.226z M7.979,6.274c0-1.157-0.895-1.979-2.11-1.979
				C4.616,4.307,3.746,5.13,3.758,6.274c0,1.145,0.87,1.955,2.074,1.955C7.072,8.242,7.979,7.407,7.979,6.274z"/>
			<path fill="#FFFFFF" d="M25.005,0.206c0,1.419,0,2.837,0,4.269c-0.167-0.549-0.263-1.133-0.513-1.646
				c-0.716-1.455-1.908-2.313-3.529-2.54c-0.072-0.012-0.144-0.06-0.215-0.083C22.167,0.206,23.586,0.206,25.005,0.206z"/>
			<path fill="#FFFFFF" d="M21.225,14.537c0.036,2.122,0.013,4.232,0.013,6.343c0,0.119-0.013,0.227-0.024,0.358
				c-1.287,0-2.552,0-3.875,0c0-0.191,0-0.37,0-0.537c0-1.812,0-3.612-0.012-5.425c0-0.405-0.024-0.811-0.071-1.204
				c-0.119-0.883-0.549-1.431-1.229-1.562c-0.895-0.179-1.681,0.132-2.074,0.954c-0.215,0.441-0.322,0.978-0.334,1.479
				c-0.036,1.884-0.012,3.768-0.012,5.663c0,0.191,0,0.382,0,0.633c-1.336,0-2.6,0-3.899,0c0-3.84,0-7.655,0-11.506
				c1.264,0,2.54,0,3.875,0c0,0.465,0,0.942,0,1.502c0.144-0.119,0.191-0.155,0.227-0.191c1.002-1.455,2.444-1.765,4.066-1.466
				c1.692,0.322,2.718,1.395,3.111,3.052C21.13,13.249,21.225,13.905,21.225,14.537z"/>
			<path fill="#FFFFFF" d="M7.835,9.72c0,3.828,0,7.643,0,11.505c-1.252,0-2.516,0-3.815,0c0-3.827,0-7.643,0-11.505
				C5.308,9.72,6.547,9.72,7.835,9.72z"/>
			<path fill="#FFFFFF" d="M5.868,4.295c1.216,0,2.11,0.823,2.11,1.979c0,1.133-0.906,1.967-2.146,1.955
				c-1.204,0-2.074-0.811-2.074-1.955C3.746,5.13,4.616,4.307,5.868,4.295z"/>
			<path fill="#FFFFFF" d="M0.205,0.206c1.419,0,2.837,0,4.269,0C3.924,0.373,3.34,0.479,2.828,0.73
				c-1.455,0.715-2.313,1.896-2.54,3.518c-0.012,0.083-0.06,0.143-0.083,0.227C0.205,3.043,0.205,1.625,0.205,0.206z"/>
			<path fill="#FFFFFF" d="M4.473,25.006c-1.431,0-2.85,0-4.269,0c0-1.419,0-2.838,0-4.257c0.167,0.549,0.274,1.121,0.524,1.634
				c0.715,1.454,1.896,2.312,3.518,2.539C4.33,24.934,4.39,24.981,4.473,25.006z"/>
		</g>
		<g>
		</g>
	</g>
</g>
</svg>
